<svg id="_9024102_brain_light_icon" data-name="9024102_brain_light_icon" xmlns="http://www.w3.org/2000/svg" width="30" height="30" viewBox="0 0 30 30">
  <rect id="Rectangle_4707" data-name="Rectangle 4707" width="30" height="30" fill="none"/>
  <line id="Line_19" data-name="Line 19" y1="12" transform="translate(16 9)" fill="none" stroke="#fff" stroke-linecap="round" stroke-linejoin="round" stroke-width="1"/>
  <path id="Path_3404" data-name="Path 3404" d="M52.721,144A4.721,4.721,0,1,1,48,148.721v-.791" transform="translate(-42.335 -127.006)" fill="none" stroke="#fff" stroke-linecap="round" stroke-linejoin="round" stroke-width="1"/>
  <path id="Path_3405" data-name="Path 3405" d="M132.721,144a4.721,4.721,0,1,0,4.721,4.721v-.791" transform="translate(-112.894 -127.006)" fill="none" stroke="#fff" stroke-linecap="round" stroke-linejoin="round" stroke-width="1"/>
  <path id="Path_3406" data-name="Path 3406" d="M22.491,49.466h-.944a5.665,5.665,0,0,1-1.888-11.011V36.721a4.721,4.721,0,0,1,9.441,0V49.938" transform="translate(-13.994 -28.224)" fill="none" stroke="#fff" stroke-linecap="round" stroke-linejoin="round" stroke-width="1"/>
  <path id="Path_3407" data-name="Path 3407" d="M134.609,49.466h.944a5.665,5.665,0,0,0,1.888-11.011V36.721a4.721,4.721,0,0,0-9.441,0" transform="translate(-112.894 -28.224)" fill="none" stroke="#fff" stroke-linecap="round" stroke-linejoin="round" stroke-width="1"/>
  <path id="Path_3408" data-name="Path 3408" d="M63.3,84v.944a3.3,3.3,0,0,1-3.3,3.3" transform="translate(-52.919 -74.087)" fill="none" stroke="#fff" stroke-linecap="round" stroke-linejoin="round" stroke-width="1"/>
  <path id="Path_3409" data-name="Path 3409" d="M168,84v.944a3.3,3.3,0,0,0,3.3,3.3" transform="translate(-148.174 -74.087)" fill="none" stroke="#fff" stroke-linecap="round" stroke-linejoin="round" stroke-width="1"/>
</svg>
