<svg xmlns="http://www.w3.org/2000/svg" width="31.154" height="30" viewBox="0 0 31.154 30">
  <g id="brainOnFire" transform="translate(-313.646 -350)">
    <g id="brainOnFire-2" data-name="brainOnFire" transform="translate(314 350)">
      <rect id="Rectangle_4707" data-name="Rectangle 4707" width="30" height="30" fill="none"/>
      <path id="Path_3404" data-name="Path 3404" d="M52.721,144A4.721,4.721,0,1,1,48,148.721v-.791" transform="translate(-42.335 -127.006)" fill="none" stroke="#3b5998" stroke-linecap="round" stroke-linejoin="round" stroke-width="1"/>
      <path id="Path_3405" data-name="Path 3405" d="M132.721,144a4.721,4.721,0,1,0,4.721,4.721v-.791" transform="translate(-112.894 -127.006)" fill="none" stroke="#3b5998" stroke-linecap="round" stroke-linejoin="round" stroke-width="1"/>
      <path id="Path_3406" data-name="Path 3406" d="M22.491,49.466h-.944a5.665,5.665,0,0,1-1.888-11.011V36.721a4.721,4.721,0,0,1,9.441,0V49.938" transform="translate(-13.994 -28.224)" fill="none" stroke="#3b5998" stroke-linecap="round" stroke-linejoin="round" stroke-width="1"/>
      <path id="Path_3407" data-name="Path 3407" d="M134.609,49.466h.944a5.665,5.665,0,0,0,1.888-11.011V36.721a4.721,4.721,0,0,0-9.441,0" transform="translate(-112.894 -28.224)" fill="none" stroke="#3b5998" stroke-linecap="round" stroke-linejoin="round" stroke-width="1"/>
      <path id="Path_3408" data-name="Path 3408" d="M63.3,84v.944a3.3,3.3,0,0,1-3.3,3.3" transform="translate(-52.919 -74.087)" fill="none" stroke="#3b5998" stroke-linecap="round" stroke-linejoin="round" stroke-width="1"/>
      <path id="Path_3409" data-name="Path 3409" d="M168,84v.944a3.3,3.3,0,0,0,3.3,3.3" transform="translate(-148.174 -74.087)" fill="none" stroke="#3b5998" stroke-linecap="round" stroke-linejoin="round" stroke-width="1"/>
    </g>
    <g id="Group_9338" data-name="Group 9338">
      <line id="Line_20" data-name="Line 20" x1="4" y2="3" transform="translate(340.5 356.5)" fill="none" stroke="#3b5998" stroke-width="1"/>
      <line id="Line_21" data-name="Line 21" y2="3" transform="translate(329 350)" fill="none" stroke="#3b5998" stroke-width="1"/>
      <line id="Line_22" data-name="Line 22" x2="3" y2="3" transform="translate(314 356)" fill="none" stroke="#3b5998" stroke-width="1"/>
      <line id="Line_23" data-name="Line 23" x1="3.5" y1="2.25" transform="translate(340.75 372)" fill="none" stroke="#3b5998" stroke-width="1"/>
      <line id="Line_24" data-name="Line 24" x1="3" y2="3" transform="translate(315 372)" fill="none" stroke="#3b5998" stroke-width="1"/>
    </g>
  </g>
</svg>
