<svg xmlns="http://www.w3.org/2000/svg" width="33.406" height="32.854" viewBox="0 0 33.406 32.854">
  <g id="chainIcon" transform="translate(-313 -621)">
    <g id="_139f6011a75ca4ec5b5090bca414471e" data-name="139f6011a75ca4ec5b5090bca414471e" transform="translate(303.014 602.867)">
      <g id="Group_9062" data-name="Group 9062" transform="translate(9.986 18.133)">
        <g id="Group_9061" data-name="Group 9061" transform="translate(0 0)">
          <g id="Group_9060" data-name="Group 9060">
            <path id="Path_3400" data-name="Path 3400" d="M25.451,286.916,20.566,291.8a4.777,4.777,0,0,1-6.73-.283,4.782,4.782,0,0,1-.283-6.733l5.536-5.536a4.777,4.777,0,0,1,6.73.283,5.218,5.218,0,0,1,1.477,2.88,3.134,3.134,0,0,0,1.918-.893l.206-.206a7.53,7.53,0,0,0-1.965-3.416,7.087,7.087,0,0,0-10-.283l-5.54,5.54a7.091,7.091,0,0,0,.283,10,7.087,7.087,0,0,0,10,.283l5.536-5.536a6.332,6.332,0,0,0,.823-1.014A8.241,8.241,0,0,1,25.451,286.916Z" transform="translate(-9.986 -266.225)" fill="#fff"/>
            <path id="Path_3401" data-name="Path 3401" d="M281.715,20.06l-5.536,5.54a6.3,6.3,0,0,0-.823,1.014,8.262,8.262,0,0,1,3.108-.029l4.889-4.889a4.777,4.777,0,0,1,6.73.283,4.777,4.777,0,0,1,.283,6.73l-5.54,5.54a4.777,4.777,0,0,1-6.73-.283,5.218,5.218,0,0,1-1.477-2.88,3.154,3.154,0,0,0-1.918.893l-.2.206a7.53,7.53,0,0,0,1.965,3.416,7.087,7.087,0,0,0,10,.283L292,30.346a7.087,7.087,0,0,0-.283-10A7.091,7.091,0,0,0,281.715,20.06Z" transform="translate(-264.783 -18.133)" fill="#fff"/>
          </g>
        </g>
      </g>
    </g>
    <path id="add-to-favorites" d="M23.652,11.162a6.745,6.745,0,1,1-6.745,6.745,6.745,6.745,0,0,1,6.745-6.745Zm-1,3.9a.966.966,0,0,1,.078-.379v-.015a.984.984,0,0,1,.208-.309,1,1,0,0,1,.7-.291h0a1.061,1.061,0,0,1,.379.075,1.044,1.044,0,0,1,.324.216.971.971,0,0,1,.213.321V14.7a1.049,1.049,0,0,1,.09.364v2.007h1.99a1,1,0,0,1,.379.075.989.989,0,0,1,.324.216,1,1,0,0,1,.213.321V17.7a1,1,0,0,1,.07.346v.03a.958.958,0,0,1-.075.361,1,1,0,0,1-.216.324.974.974,0,0,1-.319.213H27a1.061,1.061,0,0,1-.359.07H24.628v1.99a1,1,0,0,1-.075.379,1.031,1.031,0,0,1-.216.324l-.02.018a.974.974,0,0,1-.3.2H24a1.049,1.049,0,0,1-.359.07h0a1,1,0,0,1-.379-.075.989.989,0,0,1-.324-.216.936.936,0,0,1-.213-.319,1.016,1.016,0,0,1-.078-.376v-1.98H20.668a.966.966,0,0,1-.379-.078h-.015a.984.984,0,0,1-.309-.208.971.971,0,0,1-.213-.321v-.018a1.061,1.061,0,0,1-.078-.354h0a.954.954,0,0,1,.075-.379.991.991,0,0,1,.911-.625h2.007V15.061Z" transform="translate(316.009 629.202)" fill="#fff" fill-rule="evenodd"/>
  </g>
</svg>
