<svg xmlns="http://www.w3.org/2000/svg" width="35.467" height="35.467" viewBox="0 0 35.467 35.467">
  <path id="Icon_metro-facebook" data-name="Icon metro-facebook" d="M32.127,1.928H8.481A5.911,5.911,0,0,0,2.571,7.84V31.483a5.911,5.911,0,0,0,5.91,5.912H20.3V21.878H15.871V17.445H20.3V14.12a5.542,5.542,0,0,1,5.542-5.542h5.542v4.433H25.846a1.108,1.108,0,0,0-1.108,1.108v3.325h6.1l-1.108,4.433H24.737V37.395h7.389a5.911,5.911,0,0,0,5.911-5.912V7.84a5.911,5.911,0,0,0-5.911-5.912Z" transform="translate(-2.571 -1.928)" fill="#fff"/>
</svg>
