<svg xmlns="http://www.w3.org/2000/svg" width="26.897" height="24" viewBox="0 0 26.897 24">
  <g id="heart" transform="translate(-315.594 -547)">
    <path id="add-to-favorites" d="M20.646,9.744a5.888,5.888,0,1,1-5.888,5.888A5.888,5.888,0,0,1,20.646,9.744Zm-6.31-5.452-.99,1.038-.99-.97c-1.623-1.6-2.85-2.8-5.371-2.836l-.313.015A5.64,5.64,0,0,0,3.009,2.985,4.946,4.946,0,0,0,1.452,6.614v.3c.151,4.221,4.19,7.9,7.539,10.952.657.589,1.266,1.154,1.86,1.726l2.469,2.377,1.294-1.286c.149.175.3.346.467.508h0c.18.182.37.353.567.517l-2.32,2.3L9.856,20.643c-.545-.523-1.176-1.1-1.833-1.7C4.462,15.706.177,11.8,0,6.965V6.6A6.378,6.378,0,0,1,2.017,1.918,7.1,7.1,0,0,1,6.617.074h.392c3.066.039,4.479,1.389,6.308,3.187,1.5-1.6,2.758-2.915,5.3-3.209a7.421,7.421,0,0,1,4.162.756,7.7,7.7,0,0,1,2.74,2.3,6.906,6.906,0,0,1,1.336,3.325,6.79,6.79,0,0,1-.626,3.682l-.037-.039a7.925,7.925,0,0,0-1.126-.935,5.314,5.314,0,0,0,.344-2.541,5.476,5.476,0,0,0-1.058-2.628A6.269,6.269,0,0,0,22.131,2.1a5.973,5.973,0,0,0-3.34-.6C16.749,1.734,15.661,2.891,14.336,4.292Zm5.441,8.856a.843.843,0,0,1,.068-.331V12.8a.859.859,0,0,1,.182-.269.876.876,0,0,1,.609-.254h0a.927.927,0,0,1,.331.066.911.911,0,0,1,.283.188.848.848,0,0,1,.186.28v.015a.916.916,0,0,1,.079.318V14.9H23.25a.876.876,0,0,1,.331.066.863.863,0,0,1,.283.188.876.876,0,0,1,.186.28v.013a.876.876,0,0,1,.061.3v.026a.837.837,0,0,1-.066.315.876.876,0,0,1-.188.283.85.85,0,0,1-.278.186h-.015a.926.926,0,0,1-.313.061H21.5v1.737a.876.876,0,0,1-.066.331.9.9,0,0,1-.188.283l-.018.015a.85.85,0,0,1-.263.171h-.015a.916.916,0,0,1-.313.061h0a.876.876,0,0,1-.331-.066.863.863,0,0,1-.283-.188.817.817,0,0,1-.186-.278.887.887,0,0,1-.068-.329V16.631H18.042a.843.843,0,0,1-.331-.068H17.7a.859.859,0,0,1-.269-.182.848.848,0,0,1-.186-.28v-.015a.927.927,0,0,1-.068-.309h0a.832.832,0,0,1,.066-.331.865.865,0,0,1,.8-.545h1.752V13.148Z" transform="translate(315.594 546.992)" fill="#fff" fill-rule="evenodd"/>
  </g>
</svg>
