<svg xmlns="http://www.w3.org/2000/svg" width="17.439" height="19.963" viewBox="0 0 17.439 19.963">
  <g id="microphone" transform="translate(-322.69 -637)">
    <path id="Icon_awesome-microphone-alt" data-name="Icon awesome-microphone-alt" d="M16.646,7.486h-.793a.723.723,0,0,0-.793.624V9.981c0,2.916-3.195,5.257-6.975,4.967-3.295-.253-5.708-2.584-5.708-5.189V8.11a.723.723,0,0,0-.793-.624H.793A.723.723,0,0,0,0,8.11V9.676c0,3.5,3.169,6.611,7.53,7.084v1.332H4.756a.723.723,0,0,0-.793.624v.624a.723.723,0,0,0,.793.624h7.927a.723.723,0,0,0,.793-.624v-.624a.723.723,0,0,0-.793-.624H9.908V16.775c4.246-.459,7.53-3.327,7.53-6.793V8.11A.723.723,0,0,0,16.646,7.486ZM8.719,13.724c2.627,0,4.756-1.676,4.756-3.743H9.248c-.292,0-.529-.14-.529-.312V9.046c0-.172.237-.312.529-.312h4.227V7.486H9.248c-.292,0-.529-.14-.529-.312V6.55c0-.172.237-.312.529-.312h4.227V4.991H9.248c-.292,0-.529-.14-.529-.312V4.055c0-.172.237-.312.529-.312h4.227C13.475,1.676,11.346,0,8.719,0S3.963,1.676,3.963,3.743V9.981C3.963,12.049,6.093,13.724,8.719,13.724Z" transform="translate(322.69 637)" fill="#3b5998"/>
  </g>
</svg>
