<svg xmlns="http://www.w3.org/2000/svg" width="97" height="24" viewBox="0 0 97 24">
  <g id="perspective" transform="translate(1916.935 3151)">
    <rect id="Rectangle_4708" data-name="Rectangle 4708" width="97" height="24" rx="4" transform="translate(-1916.935 -3151)" fill="#3b5998"/>
    <text id="Perspective-2" data-name="Perspective" transform="translate(-1886.935 -3136)" fill="#fff" font-size="10" font-family="OpenSans-Bold, Open Sans" font-weight="700"><tspan x="0" y="0">Perspective</tspan></text>
    <path id="add-to-favorites" d="M19.8,11.162a2.9,2.9,0,1,1-2.9,2.9,2.9,2.9,0,0,1,2.9-2.9Zm-.428,1.674a.415.415,0,0,1,.033-.163v-.006a.422.422,0,0,1,.089-.133.429.429,0,0,1,.3-.125h0a.456.456,0,0,1,.163.032.448.448,0,0,1,.139.093.417.417,0,0,1,.091.138v.009a.45.45,0,0,1,.039.156V13.7h.854a.429.429,0,0,1,.163.032.425.425,0,0,1,.139.093.429.429,0,0,1,.091.138v.007a.429.429,0,0,1,.03.149v.013a.411.411,0,0,1-.032.155.429.429,0,0,1-.093.139.418.418,0,0,1-.137.091h-.008a.456.456,0,0,1-.154.03h-.863V15.4a.429.429,0,0,1-.032.163.443.443,0,0,1-.093.139l-.009.008a.418.418,0,0,1-.129.086h-.007a.45.45,0,0,1-.154.03h0a.429.429,0,0,1-.163-.032A.425.425,0,0,1,19.5,15.7a.4.4,0,0,1-.091-.137.436.436,0,0,1-.033-.161v-.85h-.85a.415.415,0,0,1-.163-.033h-.006a.422.422,0,0,1-.133-.089.417.417,0,0,1-.091-.138v-.008a.455.455,0,0,1-.033-.152h0a.41.41,0,0,1,.032-.163.425.425,0,0,1,.391-.268h.862v-.865Z" transform="translate(-1915.41 -3148.848)" fill="#fff" fill-rule="evenodd"/>
    <g id="_139f6011a75ca4ec5b5090bca414471e" data-name="139f6011a75ca4ec5b5090bca414471e" transform="translate(-1908.632 -3146)">
      <g id="Group_9062" data-name="Group 9062" transform="translate(0 0)">
        <g id="Group_9061" data-name="Group 9061">
          <g id="Group_9060" data-name="Group 9060">
            <path id="Path_3400" data-name="Path 3400" d="M16.626,280.507l-2.1,2.1a2.137,2.137,0,0,1-3.011-3.012l2.377-2.377a2.051,2.051,0,0,1,2.889.121,2.24,2.24,0,0,1,.634,1.237,1.346,1.346,0,0,0,.823-.383l.088-.088a3.233,3.233,0,0,0-.844-1.467,3.043,3.043,0,0,0-4.293-.121l-2.378,2.378a3.127,3.127,0,0,0,4.414,4.416l2.377-2.377a2.719,2.719,0,0,0,.353-.435A3.538,3.538,0,0,1,16.626,280.507Z" transform="translate(-9.986 -271.624)" fill="#fff"/>
            <path id="Path_3401" data-name="Path 3401" d="M277.6,18.96l-2.377,2.378a2.7,2.7,0,0,0-.353.435,3.547,3.547,0,0,1,1.334-.013l2.1-2.1a2.137,2.137,0,0,1,3.011,3.011l-2.378,2.378a2.051,2.051,0,0,1-2.889-.121,2.24,2.24,0,0,1-.634-1.236,1.354,1.354,0,0,0-.823.383l-.087.088a3.233,3.233,0,0,0,.844,1.467,3.043,3.043,0,0,0,4.293.121l2.377-2.377A3.128,3.128,0,0,0,277.6,18.96Z" transform="translate(-270.328 -18.133)" fill="#fff"/>
          </g>
        </g>
      </g>
    </g>
  </g>
</svg>
