<svg xmlns="http://www.w3.org/2000/svg" width="90" height="24" viewBox="0 0 90 24">
  <g id="slant" transform="translate(-273 -630)">
    <rect id="Rectangle_4708" data-name="Rectangle 4708" width="90" height="24" rx="4" transform="translate(273 630)" fill="#3b5998"/>
    <g id="Group_9364" data-name="Group 9364" transform="translate(-33 14.762)">
      <g id="_139f6011a75ca4ec5b5090bca414471e" data-name="139f6011a75ca4ec5b5090bca414471e" transform="translate(313 621)">
        <g id="Group_9062" data-name="Group 9062" transform="translate(0 0)">
          <g id="Group_9061" data-name="Group 9061" transform="translate(0 0)">
            <g id="Group_9060" data-name="Group 9060">
              <path id="Path_3400" data-name="Path 3400" d="M16.217,280.211l-1.969,1.969a2.006,2.006,0,0,1-2.826-2.827l2.231-2.231a1.925,1.925,0,0,1,2.712.114,2.1,2.1,0,0,1,.6,1.16,1.263,1.263,0,0,0,.773-.36l.083-.083a3.034,3.034,0,0,0-.792-1.377,2.855,2.855,0,0,0-4.029-.114l-2.232,2.232a2.935,2.935,0,0,0,4.143,4.144l2.231-2.231a2.549,2.549,0,0,0,.332-.408A3.321,3.321,0,0,1,16.217,280.211Z" transform="translate(-9.986 -271.873)" fill="#fff"/>
              <path id="Path_3401" data-name="Path 3401" d="M277.407,18.909l-2.231,2.232a2.541,2.541,0,0,0-.332.409,3.329,3.329,0,0,1,1.252-.012l1.97-1.97a2.005,2.005,0,0,1,2.826,2.826l-2.232,2.232a1.925,1.925,0,0,1-2.712-.114,2.1,2.1,0,0,1-.6-1.16,1.271,1.271,0,0,0-.773.36l-.081.083a3.034,3.034,0,0,0,.792,1.377,2.856,2.856,0,0,0,4.029.114l2.231-2.231a2.935,2.935,0,0,0-4.144-4.144Z" transform="translate(-270.585 -18.133)" fill="#fff"/>
            </g>
          </g>
        </g>
      </g>
      <path id="add-to-favorites" d="M19.625,11.162a2.718,2.718,0,1,1-2.718,2.718A2.718,2.718,0,0,1,19.625,11.162Zm-.4,1.571a.389.389,0,0,1,.031-.153v-.006a.4.4,0,0,1,.084-.125.4.4,0,0,1,.282-.117h0a.428.428,0,0,1,.153.03.421.421,0,0,1,.131.087.391.391,0,0,1,.086.129v.008a.423.423,0,0,1,.036.147v.809h.8a.4.4,0,0,1,.153.03.4.4,0,0,1,.131.087.4.4,0,0,1,.086.129V13.8a.4.4,0,0,1,.028.139v.012a.386.386,0,0,1-.03.145.4.4,0,0,1-.087.131.392.392,0,0,1-.129.086h-.007a.427.427,0,0,1-.145.028h-.809v.8a.4.4,0,0,1-.03.153.415.415,0,0,1-.087.131l-.008.007a.392.392,0,0,1-.121.081h-.007a.423.423,0,0,1-.145.028h0a.4.4,0,0,1-.153-.03.4.4,0,0,1-.131-.087.377.377,0,0,1-.086-.129.409.409,0,0,1-.031-.152v-.8h-.8a.389.389,0,0,1-.153-.031h-.006a.4.4,0,0,1-.125-.084.391.391,0,0,1-.086-.129v-.007a.427.427,0,0,1-.031-.143h0a.384.384,0,0,1,.03-.153.4.4,0,0,1,.367-.252h.809v-.812Z" transform="translate(304.118 617.64)" fill="#fff" fill-rule="evenodd"/>
    </g>
    <text id="Perspective_" data-name="Perspective " transform="translate(298 646)" fill="#fff" font-size="10" font-family="OpenSans-SemiBold, Open Sans" font-weight="600"><tspan x="0" y="0">Perspective </tspan></text>
  </g>
</svg>
